<svg width="193" height="45" viewBox="0 0 193 45" fill="none" xmlns="http://www.w3.org/2000/svg">
<path d="M66.256 15.644V31H63.176V24.466H56.598V31H53.518V15.644H56.598V21.958H63.176V15.644H66.256ZM68.4955 24.862C68.4955 23.63 68.7375 22.5373 69.2215 21.584C69.7202 20.6307 70.3875 19.8973 71.2235 19.384C72.0742 18.8707 73.0202 18.614 74.0615 18.614C74.9709 18.614 75.7629 18.7973 76.4375 19.164C77.1269 19.5307 77.6769 19.9927 78.0875 20.55V18.812H81.1895V31H78.0875V29.218C77.6915 29.79 77.1415 30.2667 76.4375 30.648C75.7482 31.0147 74.9489 31.198 74.0395 31.198C73.0129 31.198 72.0742 30.934 71.2235 30.406C70.3875 29.878 69.7202 29.1373 69.2215 28.184C68.7375 27.216 68.4955 26.1087 68.4955 24.862ZM78.0875 24.906C78.0875 24.158 77.9409 23.52 77.6475 22.992C77.3542 22.4493 76.9582 22.0387 76.4595 21.76C75.9609 21.4667 75.4255 21.32 74.8535 21.32C74.2815 21.32 73.7535 21.4593 73.2695 21.738C72.7855 22.0167 72.3895 22.4273 72.0815 22.97C71.7882 23.498 71.6415 24.1287 71.6415 24.862C71.6415 25.5953 71.7882 26.2407 72.0815 26.798C72.3895 27.3407 72.7855 27.7587 73.2695 28.052C73.7682 28.3453 74.2962 28.492 74.8535 28.492C75.4255 28.492 75.9609 28.3527 76.4595 28.074C76.9582 27.7807 77.3542 27.37 77.6475 26.842C77.9409 26.2993 78.0875 25.654 78.0875 24.906ZM87.2777 14.72V31H84.1977V14.72H87.2777ZM93.4007 14.72V31H90.3207V14.72H93.4007ZM107.95 18.812V31H104.848V29.46C104.452 29.988 103.931 30.406 103.286 30.714C102.655 31.0073 101.966 31.154 101.218 31.154C100.264 31.154 99.4211 30.956 98.6878 30.56C97.9544 30.1493 97.3751 29.5553 96.9498 28.778C96.5391 27.986 96.3338 27.0473 96.3338 25.962V18.812H99.4138V25.522C99.4138 26.49 99.6558 27.238 100.14 27.766C100.624 28.2793 101.284 28.536 102.12 28.536C102.97 28.536 103.638 28.2793 104.122 27.766C104.606 27.238 104.848 26.49 104.848 25.522V18.812H107.95ZM126.125 18.636C127.621 18.636 128.823 19.098 129.733 20.022C130.657 20.9313 131.119 22.2073 131.119 23.85V31H128.039V24.268C128.039 23.3147 127.797 22.5887 127.313 22.09C126.829 21.5767 126.169 21.32 125.333 21.32C124.497 21.32 123.829 21.5767 123.331 22.09C122.847 22.5887 122.605 23.3147 122.605 24.268V31H119.525V24.268C119.525 23.3147 119.283 22.5887 118.799 22.09C118.315 21.5767 117.655 21.32 116.819 21.32C115.968 21.32 115.293 21.5767 114.795 22.09C114.311 22.5887 114.069 23.3147 114.069 24.268V31H110.989V18.812H114.069V20.286C114.465 19.7727 114.971 19.3693 115.587 19.076C116.217 18.7827 116.907 18.636 117.655 18.636C118.608 18.636 119.459 18.8413 120.207 19.252C120.955 19.648 121.534 20.22 121.945 20.968C122.341 20.264 122.913 19.6993 123.661 19.274C124.423 18.8487 125.245 18.636 126.125 18.636ZM135.603 17.36C135.061 17.36 134.606 17.1913 134.239 16.854C133.887 16.502 133.711 16.0693 133.711 15.556C133.711 15.0427 133.887 14.6173 134.239 14.28C134.606 13.928 135.061 13.752 135.603 13.752C136.146 13.752 136.593 13.928 136.945 14.28C137.312 14.6173 137.495 15.0427 137.495 15.556C137.495 16.0693 137.312 16.502 136.945 16.854C136.593 17.1913 136.146 17.36 135.603 17.36ZM137.121 18.812V31H134.041V18.812H137.121ZM146.918 18.636C148.37 18.636 149.544 19.098 150.438 20.022C151.333 20.9313 151.78 22.2073 151.78 23.85V31H148.7V24.268C148.7 23.3 148.458 22.5593 147.974 22.046C147.49 21.518 146.83 21.254 145.994 21.254C145.144 21.254 144.469 21.518 143.97 22.046C143.486 22.5593 143.244 23.3 143.244 24.268V31H140.164V18.812H143.244V20.33C143.655 19.802 144.176 19.3913 144.806 19.098C145.452 18.79 146.156 18.636 146.918 18.636ZM153.917 24.862C153.917 23.63 154.159 22.5373 154.643 21.584C155.142 20.6307 155.809 19.8973 156.645 19.384C157.496 18.8707 158.442 18.614 159.483 18.614C160.393 18.614 161.185 18.7973 161.859 19.164C162.549 19.5307 163.099 19.9927 163.509 20.55V18.812H166.611V31H163.509V29.218C163.113 29.79 162.563 30.2667 161.859 30.648C161.17 31.0147 160.371 31.198 159.461 31.198C158.435 31.198 157.496 30.934 156.645 30.406C155.809 29.878 155.142 29.1373 154.643 28.184C154.159 27.216 153.917 26.1087 153.917 24.862ZM163.509 24.906C163.509 24.158 163.363 23.52 163.069 22.992C162.776 22.4493 162.38 22.0387 161.881 21.76C161.383 21.4667 160.847 21.32 160.275 21.32C159.703 21.32 159.175 21.4593 158.691 21.738C158.207 22.0167 157.811 22.4273 157.503 22.97C157.21 23.498 157.063 24.1287 157.063 24.862C157.063 25.5953 157.21 26.2407 157.503 26.798C157.811 27.3407 158.207 27.7587 158.691 28.052C159.19 28.3453 159.718 28.492 160.275 28.492C160.847 28.492 161.383 28.3527 161.881 28.074C162.38 27.7807 162.776 27.37 163.069 26.842C163.363 26.2993 163.509 25.654 163.509 24.906ZM173.206 21.342V27.238C173.206 27.6487 173.301 27.9493 173.492 28.14C173.697 28.316 174.034 28.404 174.504 28.404H175.934V31H173.998C171.402 31 170.104 29.7387 170.104 27.216V21.342H168.652V18.812H170.104V15.798H173.206V18.812H175.934V21.342H173.206ZM189.479 24.642C189.479 25.082 189.45 25.478 189.391 25.83H180.481C180.554 26.71 180.862 27.3993 181.405 27.898C181.948 28.3967 182.615 28.646 183.407 28.646C184.551 28.646 185.365 28.1547 185.849 27.172H189.171C188.819 28.3453 188.144 29.3133 187.147 30.076C186.15 30.824 184.925 31.198 183.473 31.198C182.3 31.198 181.244 30.9413 180.305 30.428C179.381 29.9 178.655 29.1593 178.127 28.206C177.614 27.2527 177.357 26.1527 177.357 24.906C177.357 23.6447 177.614 22.5373 178.127 21.584C178.64 20.6307 179.359 19.8973 180.283 19.384C181.207 18.8707 182.27 18.614 183.473 18.614C184.632 18.614 185.666 18.8633 186.575 19.362C187.499 19.8607 188.21 20.572 188.709 21.496C189.222 22.4053 189.479 23.454 189.479 24.642ZM186.289 23.762C186.274 22.97 185.988 22.3393 185.431 21.87C184.874 21.386 184.192 21.144 183.385 21.144C182.622 21.144 181.977 21.3787 181.449 21.848C180.936 22.3027 180.62 22.9407 180.503 23.762H186.289Z" fill="#3B48BF"/>
<mask id="mask0_111_694" style="mask-type:luminance" maskUnits="userSpaceOnUse" x="0" y="0" width="45" height="45">
<path d="M0 12C0 5.37258 5.37258 0 12 0H32.0508C38.6782 0 44.0508 5.37258 44.0508 12V32.0508C44.0508 38.6782 38.6782 44.0508 32.0508 44.0508H12C5.37258 44.0508 0 38.6782 0 32.0508V12Z" fill="white"/>
</mask>
<g mask="url(#mask0_111_694)">
<mask id="mask1_111_694" style="mask-type:luminance" maskUnits="userSpaceOnUse" x="0" y="0" width="45" height="45">
<path d="M5.8976 0H38.1532C41.4104 0 44.0508 2.64041 44.0508 5.8976V38.1532C44.0508 41.4104 41.4104 44.0508 38.1532 44.0508H5.8976C2.64041 44.0508 0 41.4104 0 38.1532V5.8976C0 2.64041 2.64041 0 5.8976 0Z" fill="white"/>
</mask>
<g mask="url(#mask1_111_694)">
<path d="M0 12C0 5.37258 5.37258 0 12 0H32.0508C38.6782 0 44.0508 5.37258 44.0508 12V32.0508C44.0508 38.6782 38.6782 44.0508 32.0508 44.0508H12C5.37258 44.0508 0 38.6782 0 32.0508V12Z" fill="#3B48BF"/>
</g>
</g>
<mask id="mask2_111_694" style="mask-type:luminance" maskUnits="userSpaceOnUse" x="13" y="8" width="19" height="21">
<path d="M13 17.0059C13 12.0321 17.0321 8 22.0059 8C26.9797 8 31.0117 12.0321 31.0117 17.0059V19.8703C31.0117 24.8441 26.9797 28.8761 22.0059 28.8761C17.0321 28.8761 13 24.8441 13 19.8703V17.0059Z" fill="white"/>
</mask>
<g mask="url(#mask2_111_694)">
<path d="M22.0014 8.00484C17.0317 8.00484 13 12.0146 13 16.9623C13 20.0838 15.7453 22.9954 15.9935 23.2522C16.0067 23.2659 16.018 23.2771 16.0313 23.2907C16.7792 24.0538 17.3828 25.54 17.3828 26.6002V26.88C17.3828 27.9495 18.2603 28.8273 19.3302 28.8273H24.6782C25.7481 28.8273 26.6256 27.9495 26.6256 26.88V26.6002C26.6256 25.5345 27.2292 24.0537 27.9771 23.2907C27.9904 23.2771 28.0017 23.2659 28.0149 23.2522C28.2631 22.9954 31.0084 20.0838 31.0084 16.9623C31.0084 12.0146 26.9767 8.00484 22.0014 8.00484ZM21.6887 11.6856C20.3887 11.6856 19.2258 12.2067 18.3702 13.0568C17.5198 13.9072 16.9987 15.0755 16.9987 16.3701C16.9987 16.7594 16.6808 17.0777 16.2911 17.0777C15.9018 17.0777 15.5835 16.7594 15.5835 16.3701C15.5835 12.9965 18.3154 10.2649 21.6887 10.2649C22.0784 10.2649 22.3963 10.5776 22.3963 10.9725C22.3963 11.3729 22.0836 11.6856 21.6887 11.6856Z" fill="white"/>
</g>
<path d="M26.6542 29.5566H17.3619C16.9563 29.5566 16.627 29.8857 16.627 30.2916C16.627 30.6976 16.9563 31.0266 17.3619 31.0266H26.6542C27.0602 31.0266 27.3892 30.6976 27.3892 30.2916C27.3837 29.8857 27.0602 29.5566 26.6542 29.5566Z" fill="white"/>
<path d="M25.9127 31.7563H18.0914C17.6854 31.7563 17.3564 32.0853 17.3564 32.4913C17.3564 32.8972 17.6854 33.2262 18.0914 33.2262H25.9127C26.3186 33.2262 26.6476 32.8972 26.6476 32.4913C26.6476 32.0853 26.3186 31.7563 25.9127 31.7563Z" fill="white"/>
<mask id="mask3_111_694" style="mask-type:luminance" maskUnits="userSpaceOnUse" x="18" y="33" width="8" height="3">
<path d="M18.8174 34.661C18.8174 34.244 19.1554 33.906 19.5724 33.906H24.4377C24.8546 33.906 25.1926 34.244 25.1926 34.661C25.1926 35.0779 24.8546 35.416 24.4377 35.416H19.5724C19.1554 35.416 18.8174 35.0779 18.8174 34.661Z" fill="white"/>
</mask>
<g mask="url(#mask3_111_694)">
<path d="M24.4482 33.9668H19.5611C19.1552 33.9668 18.8262 34.2958 18.8262 34.7017C18.8262 35.1077 19.1552 35.4367 19.5611 35.4367H24.4482C24.8539 35.4367 25.1832 35.1077 25.1832 34.7017C25.1832 34.2906 24.8542 33.9668 24.4482 33.9668Z" fill="white"/>
</g>
</svg>
